<svg width="63" height="59" viewBox="0 0 63 59" fill="none" xmlns="http://www.w3.org/2000/svg">
<path d="M43.3125 24.6996C43.3125 27.6328 42.068 30.4458 39.8527 32.5198C37.6374 34.5939 34.6329 35.7591 31.5 35.7591C28.3671 35.7591 25.3626 34.5939 23.1473 32.5198C20.932 30.4458 19.6875 27.6328 19.6875 24.6996C19.6875 21.7665 20.932 18.9534 23.1473 16.8794C25.3626 14.8053 28.3671 13.6401 31.5 13.6401C34.6329 13.6401 37.6374 14.8053 39.8527 16.8794C42.068 18.9534 43.3125 21.7665 43.3125 24.6996Z" fill="white"/>
<path fill-rule="evenodd" clip-rule="evenodd" d="M0 29.5081C0 21.6863 3.31874 14.1849 9.22614 8.6541C15.1335 3.12329 23.1457 0.0161133 31.5 0.0161133C39.8543 0.0161133 47.8665 3.12329 53.7739 8.6541C59.6813 14.1849 63 21.6863 63 29.5081C63 37.3298 59.6813 44.8312 53.7739 50.362C47.8665 55.8928 39.8543 59 31.5 59C23.1457 59 15.1335 55.8928 9.22614 50.362C3.31874 44.8312 0 37.3298 0 29.5081ZM31.5 3.70261C26.3095 3.70286 21.2246 5.07532 16.8305 7.662C12.4364 10.2487 8.91168 13.9445 6.66211 18.324C4.41254 22.7034 3.52952 27.5886 4.11468 32.4173C4.69984 37.2459 6.7294 41.8217 9.96975 45.618C12.7654 41.4007 18.9197 36.881 31.5 36.881C44.0803 36.881 50.2307 41.397 53.0303 45.618C56.2706 41.8217 58.3002 37.2459 58.8853 32.4173C59.4705 27.5886 58.5875 22.7034 56.3379 18.324C54.0883 13.9445 50.5636 10.2487 46.1695 7.662C41.7754 5.07532 36.6905 3.70286 31.5 3.70261Z" fill="white"/>
</svg>
